<svg width="20" height="20" viewBox="0 0 20 20" fill="none" xmlns="http://www.w3.org/2000/svg">
<path d="M9.375 2.5C9.04875 2.5 8.7125 2.61563 8.47625 2.85188C8.24063 3.0875 8.125 3.42375 8.125 3.75V4.375H4.375V5.625H5V15.625C5 16.6531 5.84688 17.5 6.875 17.5H14.375C15.4031 17.5 16.25 16.6531 16.25 15.625V5.625H16.875V4.375H13.125V3.75C13.125 3.42375 13.0094 3.0875 12.7731 2.85125C12.5375 2.61625 12.2019 2.5 11.875 2.5H9.375ZM9.375 3.75H11.875V4.375H9.375V3.75ZM6.25 5.625H15V15.625C15 15.9719 14.7219 16.25 14.375 16.25H6.875C6.52812 16.25 6.25 15.9719 6.25 15.625V5.625ZM7.5 7.5V14.375H8.75V7.5H7.5ZM10 7.5V14.375H11.25V7.5H10ZM12.5 7.5V14.375H13.75V7.5H12.5Z" fill="#888888"/>
</svg>
