<svg width="14" height="14" viewBox="0 0 14 14" fill="none" xmlns="http://www.w3.org/2000/svg">
<g clip-path="url(#clip0)">
<path d="M12.9769 0.875004C12.7436 0.654045 12.499 0.486115 12.2433 0.371216C11.9875 0.256317 11.7205 0.198868 11.4423 0.198868C10.8231 0.198868 10.2666 0.441923 9.77306 0.928034C9.61152 1.07829 6.77114 3.87564 1.2519 9.32008C1.19806 9.37311 1.15767 9.43498 1.13075 9.50569C1.09485 9.65594 0.717931 10.8977 -1.81639e-05 13.2311C-0.04489 13.399 -0.00450534 13.5448 0.121136 13.6686C0.13011 13.6862 0.143572 13.6995 0.16152 13.7083C0.179469 13.7172 0.195174 13.726 0.208636 13.7349C0.222097 13.7437 0.237802 13.7525 0.255751 13.7614C0.2737 13.7702 0.291649 13.7768 0.309597 13.7813L0.363443 13.7945L0.41729 13.8011C0.471136 13.8011 0.516007 13.7923 0.551905 13.7746C2.44549 13.1648 3.68396 12.7759 4.26729 12.608C4.30319 12.5991 4.33684 12.5859 4.36825 12.5682C4.39966 12.5505 4.42883 12.5284 4.45575 12.5019C5.47883 11.5032 7.10767 9.91446 9.34229 7.7358C11.5769 5.55714 12.8019 4.35733 13.0173 4.13637C13.5468 3.59723 13.807 3.04041 13.7981 2.46591C13.7801 1.90026 13.5064 1.36995 12.9769 0.875004ZM9.63844 2.28031C10.0872 2.38637 10.509 2.63384 10.9038 3.02273C11.0654 3.18182 11.2022 3.36301 11.3144 3.56629C11.4266 3.76957 11.4984 3.92204 11.5298 4.02368C11.5612 4.12532 11.5859 4.22033 11.6038 4.30872C10.3923 5.49306 8.01857 7.80872 4.48267 11.2557C4.30319 10.8491 4.05639 10.4867 3.74229 10.1686C3.36537 9.79735 2.94357 9.51894 2.47691 9.33334L2.49037 9.32008L2.50383 9.30682L2.51729 9.29356V9.28031H2.53075L2.54421 9.26705L2.55767 9.25379V9.24053H2.57114L2.5846 9.22728L2.59806 9.21402V9.20076H2.61152L2.62498 9.1875L2.63844 9.17425V9.16099H2.65191L2.66537 9.14773L2.67883 9.13447L2.69229 9.12122V9.10796H2.70575L2.71921 9.0947L2.73267 9.08144V9.06819H2.74614L2.7596 9.05493L2.77306 9.04167L2.78652 9.02841V9.01516H2.79998L2.81344 9.0019L2.82691 8.98864L2.84037 8.97538V8.96213L2.85383 8.94887H2.86729L2.88075 8.93561L2.89421 8.92235L2.90767 8.90909V8.89584L2.92114 8.88258H2.9346L2.94806 8.86932L2.96152 8.85606L2.97498 8.84281V8.82955L2.98844 8.81629H3.00191L3.01537 8.80303L3.02883 8.78978L3.04229 8.77652L3.05575 8.76326V8.75L3.06921 8.73675H3.08267L3.09614 8.72349L3.1096 8.71023L3.12306 8.69697L3.13652 8.68372L3.14998 8.67046V8.6572H3.16344L3.17691 8.64394L3.19037 8.63069L3.20383 8.61743L3.21729 8.60417L3.23075 8.59091L3.24421 8.57766V8.5644L3.25767 8.55114H3.27114L3.2846 8.53788L3.29806 8.52463L3.31152 8.51137L3.32498 8.49811L3.33844 8.48485L3.35191 8.47159L3.36537 8.45834V8.44508L3.37883 8.43182H3.39229L3.40575 8.41856L3.41921 8.40531L3.43267 8.39205L3.44614 8.37879L3.4596 8.36553L3.47306 8.35228L3.48652 8.33902L3.49998 8.32576L3.51344 8.3125V8.29925L3.52691 8.28599L3.54037 8.27273H3.55383L3.56729 8.25947L3.58075 8.24622L3.59421 8.23296L3.60767 8.2197L3.62114 8.20644L3.6346 8.19319L3.64806 8.17993L3.66152 8.16667L3.67498 8.15341L3.68844 8.14016L3.70191 8.1269V8.11364L3.71537 8.10038L3.72883 8.08713L3.74229 8.07387H3.75575L3.76921 8.06061L3.78267 8.04735L3.79614 8.03409L3.8096 8.02084L3.82306 8.00758L3.83652 7.99432L3.84998 7.98106L3.86344 7.96781L3.87691 7.95455L3.89037 7.94129L3.90383 7.92803L3.91729 7.91478L3.93075 7.90152L3.94421 7.88826L3.95767 7.875L3.97114 7.86175L3.9846 7.84849L3.99806 7.83523L4.01152 7.82197V7.80872L4.02498 7.79546L4.03844 7.7822L4.05191 7.76894L4.06537 7.75569L4.07883 7.74243L4.09229 7.72917L4.10575 7.71591L4.11921 7.70266L4.13267 7.6894H4.14614L4.1596 7.67614L4.17306 7.66288L4.18652 7.64963L4.19998 7.63637L4.21344 7.62311L4.22691 7.60985L4.24037 7.59659L4.25383 7.58334L4.26729 7.57008L4.28075 7.55682L4.29421 7.54356L4.30767 7.53031L4.32114 7.51705L4.3346 7.50379L4.34806 7.49053L4.36152 7.47728L4.37498 7.46402L4.38844 7.45076L4.40191 7.4375L4.41537 7.42425L4.42883 7.41099L4.44229 7.39773L4.45575 7.38447L4.46921 7.37122L4.49614 7.3447L4.5096 7.33144L4.52306 7.31819L4.53652 7.30493L4.54998 7.29167L4.56344 7.27841L4.57691 7.26516L4.59037 7.2519L4.60383 7.23864L4.61729 7.22538L4.63075 7.21213L4.64421 7.19887L4.65767 7.18561L4.67114 7.15909L4.6846 7.14584L4.69806 7.13258L4.71152 7.11932L4.72498 7.10606L4.75191 7.09281L4.76537 7.07955L4.77883 7.06629L4.79229 7.05303L4.80575 7.03978L4.81921 7.02652L4.83267 7.01326L4.84614 7L4.8596 6.98675L4.87306 6.97349L4.88652 6.96023L4.89998 6.93372L4.91344 6.92046L4.92691 6.9072L4.95383 6.89394L4.96729 6.88069L4.98075 6.86743L4.99421 6.85417L5.00767 6.84091L5.02114 6.82766L5.0346 6.8144L5.04806 6.80114L5.06152 6.78788L5.07498 6.76137L5.08844 6.74811L5.10191 6.73485L5.12883 6.72159L5.14229 6.70834L5.15575 6.69508L5.16921 6.68182L5.18267 6.66856L5.19614 6.65531L5.2096 6.64205L5.22306 6.61553L5.23652 6.60228L5.24998 6.58902L5.27691 6.57576L5.29037 6.5625L5.30383 6.54925L5.31729 6.53599L5.33075 6.52273L5.34421 6.50947L5.35767 6.49622L5.37114 6.4697L5.3846 6.45644L5.41152 6.44319L5.42498 6.42993L5.43844 6.41667L5.45191 6.40341L5.46537 6.39016L5.47883 6.3769L5.49229 6.35038L5.50575 6.33713L5.51921 6.32387L5.54614 6.31061L5.5596 6.29735L5.57306 6.28409L5.58652 6.27084L5.59998 6.25758L5.61344 6.23106L5.62691 6.21781L5.64037 6.20455L5.66729 6.19129L5.68075 6.17803L5.69421 6.16478L5.70767 6.15152L5.72114 6.13826L5.7346 6.11175L5.74806 6.09849L5.77498 6.08523L5.78844 6.07197L5.80191 6.05872L5.81537 6.04546L5.82883 6.0322L5.84229 6.00569L5.85575 5.99243L5.88267 5.97917L5.89614 5.96591L5.9096 5.95266L5.92306 5.9394L5.93652 5.92614L5.94998 5.89963L5.96344 5.88637L5.99037 5.87311L6.00383 5.85985L6.01729 5.84659L6.03075 5.83334L6.04421 5.82008L6.05767 5.79356L6.07114 5.78031L6.09806 5.76705L6.11152 5.75379L6.12498 5.74053L6.13844 5.72728L6.15191 5.71402L6.16537 5.6875L6.17883 5.67425L6.20575 5.66099L6.21921 5.64773L6.23267 5.63447L6.24614 5.62122L6.2596 5.5947L6.27306 5.58144L6.29998 5.56819L6.31344 5.55493L6.32691 5.54167L6.34037 5.52841L6.35383 5.5019L6.36729 5.48864L6.39421 5.47538L6.40767 5.46213L6.42114 5.44887L6.4346 5.43561L6.44806 5.40909L6.46152 5.39584L6.48844 5.38258L6.50191 5.36932L6.51537 5.35606L6.52883 5.34281L6.54229 5.31629L6.55575 5.30303L6.58267 5.28978L6.59614 5.27652L6.6096 5.26326L6.62306 5.25L6.63652 5.22349L6.64998 5.21023L6.67691 5.19697L6.69037 5.18372L6.70383 5.17046L6.71729 5.1572L6.73075 5.13069L6.74421 5.11743L6.77114 5.10417L6.7846 5.09091L6.79806 5.07766L6.81152 5.0644L6.82498 5.03788L6.85191 5.02463L6.86537 5.01137L6.87883 4.99811L6.89229 4.98485L6.90575 4.95834L6.91921 4.94508L6.94614 4.93182L6.9596 4.91856L6.97306 4.90531L6.98652 4.89205L6.99998 4.86553L7.02691 4.85228L7.04037 4.83902L7.05383 4.82576L7.06729 4.8125L7.08075 4.78599L7.09421 4.77273L7.12114 4.75947L7.1346 4.74622L7.14806 4.73296L7.16152 4.7197L7.17498 4.69319L7.20191 4.67993L7.21537 4.66667L7.22883 4.65341L7.24229 4.64016L7.25575 4.61364L7.26921 4.60038L7.29614 4.58713L7.3096 4.57387L7.32306 4.56061L7.33652 4.54735L7.34998 4.52084L7.37691 4.50758L7.39037 4.49432L7.40383 4.48106L7.41729 4.46781L7.43075 4.44129L7.44421 4.42803L7.47114 4.41478L7.4846 4.40152L7.49806 4.38826L7.51152 4.375L7.52498 4.34849L7.55191 4.33523L7.56537 4.32197L7.57883 4.30872L7.59229 4.29546L7.60575 4.26894L7.61921 4.25569L7.64614 4.24243L7.6596 4.22917L7.67306 4.21591L7.68652 4.20266L7.69998 4.17614L7.72691 4.16288L7.74037 4.14963L7.75383 4.13637L7.76729 4.12311L7.78075 4.09659L7.79421 4.08334L7.82114 4.07008L7.8346 4.05682L7.84806 4.04356L7.86152 4.03031L7.87498 4.00379L7.90191 3.99053L7.91537 3.97728L7.92883 3.96402L7.94229 3.95076L7.95575 3.92425L7.96921 3.91099L7.99614 3.89773L8.0096 3.88447L8.02306 3.87122L8.03652 3.85796L8.04998 3.83144L8.06344 3.81819L8.09037 3.80493L8.10383 3.79167L8.11729 3.77841L8.13075 3.76516L8.14421 3.73864L8.17114 3.72538L8.1846 3.71213L8.19806 3.69887L8.21152 3.68561L8.22498 3.65909L8.23844 3.64584L8.26537 3.63258L8.27883 3.61932L8.29229 3.60606L8.30575 3.59281L8.31921 3.56629L8.33267 3.55303L8.3596 3.53978L8.37306 3.52652L8.38652 3.51326L8.39998 3.5L8.41344 3.48675L8.42691 3.46023L8.44037 3.44697L8.46729 3.43372L8.48075 3.42046L8.49421 3.4072L8.50767 3.39394L8.52114 3.36743L8.5346 3.35417L8.56152 3.34091L8.57498 3.32766L8.58844 3.3144L8.60191 3.30114L8.61537 3.28788L8.62883 3.26137L8.64229 3.24811L8.66921 3.23485L8.68267 3.22159L8.69614 3.20834L8.7096 3.19508L8.72306 3.18182L8.73652 3.15531L8.74998 3.14205L8.77691 3.12879L8.79037 3.11553L8.80383 3.10228L8.81729 3.08902L8.83075 3.07576L8.84421 3.04925L8.85767 3.03599L8.87114 3.02273L8.89806 3.00947L8.91152 2.99622L8.92498 2.98296L8.93844 2.9697L8.95191 2.95644L8.96537 2.92993L8.97883 2.91667L8.99229 2.90341L9.01921 2.89016L9.03267 2.8769L9.04614 2.86364L9.0596 2.85038L9.07306 2.83713L9.08652 2.82387L9.09998 2.79735L9.11344 2.78409L9.12691 2.77084L9.14037 2.75758L9.16729 2.74432L9.18075 2.73106L9.19421 2.71781L9.20767 2.70455L9.22114 2.69129L9.2346 2.67803L9.24806 2.66478L9.26152 2.65152L9.27498 2.625L9.28844 2.61175L9.30191 2.59849L9.31537 2.58523L9.34229 2.57197L9.35575 2.55872L9.36921 2.54546L9.38267 2.5322L9.39614 2.51894L9.4096 2.50569L9.42306 2.49243L9.43652 2.47917L9.44998 2.46591L9.46344 2.45266L9.47691 2.4394L9.49037 2.42614L9.50383 2.41288L9.51729 2.39963L9.53075 2.38637L9.54421 2.37311L9.55767 2.34659L9.57114 2.33334L9.5846 2.32008L9.59806 2.30682L9.61152 2.29356L9.63844 2.28031ZM1.8846 10.0492C2.32434 10.1641 2.73716 10.4116 3.12306 10.7917C3.42819 11.0922 3.64357 11.4457 3.76921 11.8523C3.58973 11.9141 3.1612 12.0556 2.48364 12.2765C1.80607 12.4975 1.31921 12.6566 1.02306 12.7538C1.10383 12.4886 1.2519 12.0268 1.46729 11.3684C1.68267 10.7099 1.82178 10.2702 1.8846 10.0492ZM12.3846 3.52652C12.3846 3.53536 12.3801 3.5442 12.3711 3.55303L12.3442 3.57955L12.3038 3.61932C12.1243 3.15973 11.8641 2.75758 11.5231 2.41288C11.1641 2.05935 10.7647 1.78978 10.325 1.60417L10.3654 1.5644L10.3923 1.53788C10.4372 1.49369 10.4933 1.44508 10.5606 1.39205C10.6279 1.33902 10.749 1.27273 10.924 1.19319C11.099 1.11364 11.2718 1.07387 11.4423 1.07387C11.6038 1.07387 11.7631 1.10922 11.9202 1.17993C12.0772 1.25064 12.2275 1.3567 12.3711 1.49811C12.5506 1.66604 12.6875 1.83397 12.7817 2.0019C12.8759 2.16983 12.9231 2.33334 12.9231 2.49243C12.9231 2.81945 12.7436 3.16415 12.3846 3.52652Z" fill="black"/>
</g>
<defs>
<clipPath id="clip0">
<rect width="14" height="14" fill="white"/>
</clipPath>
</defs>
</svg>
